<?xml version="1.0" encoding="UTF-8" standalone="no"?>
<svg width="56px" height="50px" viewBox="0 0 56 50" version="1.1" xmlns="http://www.w3.org/2000/svg" xmlns:xlink="http://www.w3.org/1999/xlink">
    <!-- Generator: Sketch 39.1 (31720) - http://www.bohemiancoding.com/sketch -->
    <title>Group</title>
    <desc>Created with Sketch.</desc>
    <defs></defs>
    <g id="Page-1" stroke="none" stroke-width="1" fill="none" fill-rule="evenodd">
        <g id="Dashboard-new" transform="translate(-174.000000, -891.000000)" fill="#FFFFFF">
            <g id="boxx-pinjaman" transform="translate(92.000000, 837.000000)">
                <g id="Group-2" transform="translate(47.000000, 54.000000)">
                    <g id="Group-3">
                        <g id="Group" transform="translate(35.000000, 0.000000)">
                            <path d="M1.723,15.819 L27.631,28.128 C27.861,28.237 28.111,28.293 28.36,28.293 C28.609,28.293 28.859,28.237 29.089,28.128 L55,15.819 C55.593,15.538 55.971,14.94 55.971,14.284 C55.971,13.628 55.593,13.03 55,12.749 L29.09,0.439 C28.629,0.219 28.092,0.219 27.631,0.439 L1.723,12.749 C1.13,13.03 0.752,13.628 0.752,14.284 C0.752,14.94 1.13,15.538 1.723,15.819 L1.723,15.819 Z M28.36,3.856 L50.308,14.284 L28.36,24.711 L6.414,14.284 L28.36,3.856 L28.36,3.856 Z" id="Shape"></path>
                            <path d="M55.807,23.933 C55.403,23.085 54.388,22.724 53.541,23.127 L28.36,35.089 L3.182,23.127 C2.332,22.724 1.321,23.085 0.916,23.933 C0.514,24.783 0.875,25.795 1.723,26.199 L27.631,38.508 C27.861,38.617 28.111,38.672 28.36,38.672 C28.609,38.672 28.859,38.617 29.089,38.508 L55,26.198 C55.848,25.796 56.209,24.782 55.807,23.933 L55.807,23.933 Z" id="Shape"></path>
                            <path d="M55.807,34.312 C55.403,33.462 54.388,33.105 53.541,33.506 L28.36,45.468 L3.182,33.506 C2.332,33.105 1.321,33.462 0.916,34.312 C0.514,35.161 0.875,36.173 1.723,36.578 L27.631,48.887 C27.861,48.996 28.111,49.051 28.36,49.051 C28.609,49.051 28.859,48.996 29.089,48.887 L55,36.577 C55.848,36.175 56.209,35.16 55.807,34.312 L55.807,34.312 Z" id="Shape"></path>
                        </g>
                    </g>
                </g>
            </g>
        </g>
    </g>
</svg>