<?xml version="1.0" encoding="UTF-8" standalone="no"?>
<svg width="50px" height="45px" viewBox="0 0 50 45" version="1.1" xmlns="http://www.w3.org/2000/svg" xmlns:xlink="http://www.w3.org/1999/xlink">
    <!-- Generator: Sketch 39.1 (31720) - http://www.bohemiancoding.com/sketch -->
    <title>Group</title>
    <desc>Created with Sketch.</desc>
    <defs></defs>
    <g id="Page-1" stroke="none" stroke-width="1" fill="none" fill-rule="evenodd">
        <g id="Dashboard-new" transform="translate(-495.000000, -596.000000)" fill="#FFFFFF">
            <g id="boxx-pemasukan" transform="translate(410.000000, 537.000000)">
                <g id="Group-2" transform="translate(31.000000, 59.000000)">
                    <g id="1474837177_General_-_Office_28" transform="translate(54.000000, 0.000000)">
                        <g id="Layer_1">
                            <g id="Group">
                                <rect id="Rectangle-path" x="29.289" y="36.694" width="20.4" height="3.4"></rect>
                                <rect id="Rectangle-path" x="22.488" y="18.818" width="27.201" height="3.399"></rect>
                                <rect id="Rectangle-path" x="22.488" y="9.88" width="27.201" height="3.4"></rect>
                                <rect id="Rectangle-path" x="22.488" y="0.941" width="27.201" height="3.4"></rect>
                                <rect id="Rectangle-path" x="32.689" y="27.757" width="17" height="3.399"></rect>
                                <path d="M13.139,44.083 C13.575,44.083 14.008,43.917 14.34,43.585 L25.178,32.747 C25.842,32.083 25.842,31.007 25.178,30.343 C24.514,29.679 23.438,29.679 22.774,30.343 L14.838,38.279 L14.838,0.941 L11.44,0.941 L11.44,38.278 L3.504,30.342 C2.84,29.678 1.764,29.678 1.1,30.342 C0.436,31.006 0.436,32.082 1.1,32.746 L11.938,43.584 C12.27,43.917 12.703,44.083 13.139,44.083 L13.139,44.083 Z" id="Shape"></path>
                            </g>
                        </g>
                    </g>
                </g>
            </g>
        </g>
    </g>
</svg>