<?xml version="1.0" encoding="UTF-8" standalone="no"?>
<svg width="55px" height="54px" viewBox="0 0 55 54" version="1.1" xmlns="http://www.w3.org/2000/svg" xmlns:xlink="http://www.w3.org/1999/xlink">
    <!-- Generator: Sketch 39.1 (31720) - http://www.bohemiancoding.com/sketch -->
    <title>Group</title>
    <desc>Created with Sketch.</desc>
    <defs></defs>
    <g id="Page-1" stroke="none" stroke-width="1" fill="none" fill-rule="evenodd">
        <g id="Dashboard-new" transform="translate(-491.000000, -887.000000)" fill="#FFFFFF">
            <g id="boxx-pengaturan" transform="translate(408.000000, 837.000000)">
                <g id="Group-2" transform="translate(33.000000, 50.000000)">
                    <g id="1474730627_General_-_Office_56" transform="translate(50.000000, 0.000000)">
                        <g id="Layer_1">
                            <g id="Group">
                                <path d="M27.574,17.253 C22.131,17.253 17.703,21.681 17.703,27.124 C17.703,32.567 22.131,36.995 27.574,36.995 C33.017,36.995 37.445,32.567 37.445,27.124 C37.445,21.681 33.018,17.253 27.574,17.253 L27.574,17.253 Z M27.574,33.595 C24.006,33.595 21.103,30.691 21.103,27.124 C21.103,23.556 24.005,20.653 27.574,20.653 C31.14,20.653 34.045,23.555 34.045,27.124 C34.045,30.69 31.141,33.595 27.574,33.595 L27.574,33.595 Z" id="Shape"></path>
                                <path d="M46.057,6.726 L39.082,10.755 C38.111,10.069 37.078,9.474 35.996,8.974 L35.996,0.913 L19.152,0.913 L19.152,8.974 C18.144,9.441 17.173,9.995 16.254,10.628 L9.318,6.517 L0.732,21.005 L7.668,25.114 C7.59,25.823 7.553,26.487 7.553,27.124 C7.553,27.698 7.582,28.282 7.645,28.909 L0.665,32.94 L9.087,47.524 L16.066,43.493 C17.039,44.179 18.07,44.774 19.154,45.274 L19.154,53.335 L35.998,53.335 L35.998,45.274 C37.006,44.807 37.975,44.253 38.894,43.62 L45.83,47.731 L54.416,33.243 L47.482,29.134 C47.56,28.429 47.597,27.763 47.597,27.124 C47.597,26.548 47.568,25.966 47.505,25.339 L54.485,21.308 L46.057,6.726 L46.057,6.726 Z M43.824,23.538 L43.994,24.681 C44.131,25.609 44.197,26.384 44.197,27.124 C44.197,27.921 44.121,28.78 43.965,29.755 L43.783,30.896 L49.756,34.435 L44.637,43.074 L38.664,39.533 L37.75,40.246 C36.506,41.215 35.133,42 33.672,42.576 L32.596,43 L32.596,49.936 L22.551,49.936 L22.551,43.002 L21.477,42.576 C19.944,41.971 18.522,41.148 17.247,40.133 L16.341,39.41 L10.331,42.881 L5.31,34.186 L11.326,30.711 L11.156,29.568 C11.019,28.64 10.953,27.865 10.953,27.125 C10.953,26.324 11.027,25.486 11.185,24.49 L11.363,23.351 L5.392,19.814 L10.511,11.175 L16.484,14.718 L17.398,14.005 C18.646,13.034 20.019,12.249 21.478,11.673 L22.552,11.249 L22.552,4.313 L32.597,4.313 L32.597,11.247 L33.673,11.673 C35.202,12.278 36.626,13.101 37.902,14.116 L38.81,14.839 L44.818,11.37 L49.841,20.063 L43.824,23.538 L43.824,23.538 Z" id="Shape"></path>
                            </g>
                        </g>
                    </g>
                </g>
            </g>
        </g>
    </g>
</svg>