<?xml version="1.0" encoding="UTF-8" standalone="no"?>
<svg width="53px" height="54px" viewBox="0 0 53 54" version="1.1" xmlns="http://www.w3.org/2000/svg" xmlns:xlink="http://www.w3.org/1999/xlink">
    <!-- Generator: Sketch 39.1 (31720) - http://www.bohemiancoding.com/sketch -->
    <title>Group</title>
    <desc>Created with Sketch.</desc>
    <defs></defs>
    <g id="Page-1" stroke="none" stroke-width="1" fill="none" fill-rule="evenodd">
        <g id="Dashboard-new" transform="translate(-491.000000, -287.000000)" fill="#FFFFFF">
            <g id="boxx-jadwal" transform="translate(410.000000, 237.000000)">
                <g id="Group-2" transform="translate(62.000000, 50.000000)">
                    <g id="1474730711_General_-_Office_41" transform="translate(19.000000, 0.000000)">
                        <g id="Layer_1">
                            <g id="Group">
                                <path d="M10.35,0.333 L10.35,3.093 L0.711,3.093 L0.711,13.79 L0.711,17.19 L0.711,53.815 L45.492,53.815 C49.087,53.815 52.011,50.889 52.011,47.295 L52.011,17.19 L52.011,13.79 L52.011,3.093 L42.371,3.093 L42.371,0.333 L38.972,0.333 L38.972,3.093 L28.061,3.093 L28.061,0.333 L24.662,0.333 L24.662,3.093 L13.75,3.093 L13.75,0.333 L10.35,0.333 L10.35,0.333 Z M48.61,47.296 C48.61,49.015 47.212,50.415 45.492,50.415 L4.111,50.415 L4.111,17.19 L48.61,17.19 L48.61,47.296 L48.61,47.296 Z M24.661,6.493 L24.661,9.399 L28.06,9.399 L28.06,6.493 L38.971,6.493 L38.971,9.399 L42.37,9.399 L42.37,6.493 L48.609,6.493 L48.609,13.79 L4.111,13.79 L4.111,6.493 L10.35,6.493 L10.35,9.399 L13.75,9.399 L13.75,6.493 L24.661,6.493 L24.661,6.493 Z" id="Shape"></path>
                                <path d="M18.073,21.157 L7.448,21.157 L7.448,31.782 L18.073,31.782 L18.073,21.157 L18.073,21.157 Z M14.673,28.382 L10.848,28.382 L10.848,24.558 L14.673,24.558 L14.673,28.382 L14.673,28.382 Z" id="Shape"></path>
                                <path d="M31.673,21.157 L21.048,21.157 L21.048,31.782 L31.673,31.782 L31.673,21.157 L31.673,21.157 Z M28.273,28.382 L24.448,28.382 L24.448,24.558 L28.273,24.558 L28.273,28.382 L28.273,28.382 Z" id="Shape"></path>
                                <path d="M45.273,21.157 L34.648,21.157 L34.648,31.782 L45.273,31.782 L45.273,21.157 L45.273,21.157 Z M41.873,28.382 L38.048,28.382 L38.048,24.558 L41.873,24.558 L41.873,28.382 L41.873,28.382 Z" id="Shape"></path>
                                <path d="M18.073,35.476 L7.448,35.476 L7.448,46.101 L18.073,46.101 L18.073,35.476 L18.073,35.476 Z M14.673,42.7 L10.848,42.7 L10.848,38.874 L14.673,38.874 L14.673,42.7 L14.673,42.7 Z" id="Shape"></path>
                                <path d="M31.673,35.476 L21.048,35.476 L21.048,46.101 L31.673,46.101 L31.673,35.476 L31.673,35.476 Z M28.273,42.7 L24.448,42.7 L24.448,38.874 L28.273,38.874 L28.273,42.7 L28.273,42.7 Z" id="Shape"></path>
                                <path d="M45.273,35.476 L34.648,35.476 L34.648,46.101 L45.273,46.101 L45.273,35.476 L45.273,35.476 Z M41.873,42.7 L38.048,42.7 L38.048,38.874 L41.873,38.874 L41.873,42.7 L41.873,42.7 Z" id="Shape"></path>
                            </g>
                        </g>
                    </g>
                </g>
            </g>
        </g>
    </g>
</svg>